<svg height="511pt" viewBox="0 -49 511.99445 511" width="511pt" xmlns="http://www.w3.org/2000/svg"><path d="m312.347656 185.535156c0 57.523438-46.632812 104.160156-104.160156 104.160156-57.523438 0-104.15625-46.636718-104.15625-104.160156 0-57.527344 46.632812-104.160156 104.15625-104.160156 57.527344 0 104.160156 46.632812 104.160156 104.160156zm0 0" fill="#f3af3e"/><path d="m153.183594 173-16.925782-3.871094c7.644532-33.546875 37.464844-57.351562 71.871094-57.382812h.066406v17.359375c-9.960937.125-19.730468 2.765625-28.398437 7.683593-13.546875 7.8125-23.203125 20.949219-26.613281 36.210938zm0 0" fill="#da922a"/><path d="m168.851562 247.960938c-10.046874-6.347657-18.414062-15.019532-24.398437-25.285157l14.988281-8.742187c4.546875 7.871094 10.953125 14.507812 18.652344 19.332031zm0 0" fill="#da922a"/><path d="m265.285156 68.367188 38.683594-67.871094 15.082031 8.597656-38.683593 67.871094zm0 0" fill="#fbd699"/><path d="m95.703125 10.332031 14.984375-8.765625 39.4375 67.441406-14.988281 8.761719zm0 0" fill="#fbd699"/><path d="m0 178.246094 78.121094-.421875.09375 17.359375-78.121094.421875zm0 0" fill="#fbd699"/><path d="m97.652344 362.472656 38.683594-67.871094 15.082031 8.597657-38.683594 67.871093zm0 0" fill="#fbd699"/><path d="m429.535156 249.183594h-8.679687c0-52.730469-42.746094-95.480469-95.480469-95.480469-52.730469 0-95.476562 42.75-95.476562 95.480469 0 1 .121093 1.960937.144531 2.941406-43.914063 12.058594-69.742188 57.433594-57.6875 101.347656 9.804687 35.710938 42.210937 60.503906 79.242187 60.628906h177.9375c45.539063 0 82.460938-36.917968 82.460938-82.457031 0-45.542969-36.921875-82.460937-82.460938-82.460937zm0 0" fill="#b3e4e8"/><g fill="#f3af3e"><path d="m201.53125 22.058594h17.359375v34.71875h-17.359375zm0 0"/><path d="m62.957031 111.886719 8.695313-15.023438 30.046875 17.386719-8.691407 15.027344zm0 0"/><path d="m62.824219 261.757812 30.085937-17.328124 8.664063 15.046874-30.089844 17.324219zm0 0"/><path d="m318.542969 114.46875 30.089843-17.324219 8.664063 15.042969-30.089844 17.324219zm0 0"/></g><path d="m407.835938 370.703125h34.71875v17.359375h-34.71875zm0 0" fill="#6fbbc6"/><path d="m373.117188 370.703125h17.359374v17.359375h-17.359374zm0 0" fill="#6fbbc6"/></svg>